<?xml version="1.0" encoding="UTF-8"?>
<svg id="b" data-name="Layer 2" xmlns="http://www.w3.org/2000/svg" viewBox="0 0 440 440">
  <defs>
    <style>
      .d {
        fill: #fff;
      }

      .e {
        fill: #7e274b;
      }
    </style>
  </defs>
  <g id="c" data-name="Layer 1">
    <circle class="e" cx="220" cy="220" r="220"/>
    <path class="d" d="M166.82,315.44s-114.4,19.67-115.6,19.67c-1.2.4-1.61-.8-.8-1.61l53.39-53.39,69.04-12.04c32.11-5.62,40.14,1.61,40.54,12.44,0,.4-.4.8-1.2.8h-19.67c-.8,0-1.2.4-1.2.8v12.44h21.27c.4,0,.8.4.8,1.2v39.34c0,.8-1.2,1.2-1.61,0-4.42-11.64-18.87-24.08-44.96-19.67ZM221.01,68.58c13.65-13.65,20.07-20.07,23.68-36.93.4-1.2,1.61-1.2,1.61,0v20.47c0,13.25-11.64,25.29-25.29,38.94l-52.18,52.18c-24.48,24.08-28.1,35.72-28.1,48.97,0,1.2-1.2,1.2-1.61,0-4.82-16.06-1.61-40.14,21.27-63.02l60.61-60.61ZM221.01,126.79l-48.57,48.57c-10.04,10.04-31.71,31.71-22.88,51.78.8,1.61-.4,2.01-1.2,1.2-13.25-16.86-8.83-42.55,17.66-69.04l54.99-54.59c13.65-14.05,20.47-20.47,23.68-37.33.4-1.2,1.61-1.2,1.61,0v20.47c0,13.25-11.64,25.29-25.29,38.94ZM221.01,140.43c13.65-13.65,20.07-20.07,23.68-36.93.4-1.2,1.61-1.2,1.61,0v20.47c0,13.25-11.64,24.89-25.69,38.94l-44.15,44.15c-15.65,15.65-19.27,33.72-6.82,44.56,1.2.8.4,2.01-.8,1.2-15.65-6.82-27.7-32.51-1.2-59.01l53.39-53.39ZM272.39,187c26.49-26.49,14.45-52.18-1.2-59.01-1.2-.8-2.01.4-.8,1.2,12.44,10.84,8.43,28.9-6.82,44.56l-11.24,11.24c-14.05,13.65-25.69,25.69-25.69,38.94v20.47c0,1.2,1.61,1.2,1.61,0,3.61-16.86,10.04-23.28,24.08-36.93l20.07-20.47ZM252.32,220.71l15.25-15.25c10.04-10.44,31.71-31.71,22.48-51.78-.4-1.61.4-2.01,1.61-1.2,13.25,16.86,8.83,42.55-17.66,69.04l-22.08,21.68c-13.65,13.65-20.07,20.47-23.68,36.93-.4,1.61-1.61,1.61-1.61,0v-20.47c0-12.84,11.64-24.89,25.69-38.94ZM336.21,280.12l53.39,53.39c.8.8,0,2.01-1.2,1.61-.8,0-115.2-19.67-115.2-19.67-26.49-4.42-40.54,8.03-44.96,19.67-.4,1.2-1.61.8-1.61,0v-3.61c0-13.25,11.64-25.29,25.69-38.94l22.88-22.88,61.01,10.44ZM226.63,295.77c0-.8.4-1.2.8-1.2h10.03c-4.42,6.02-7.22,12.44-9.23,21.27,0,1.2-1.61,1.2-1.61,0v-20.07ZM279.62,251.62l-27.3,27.29-2.41,2.41h-18.87c4.42-8.03,12.44-16.06,21.27-24.48l18.87-19.27c24.49-24.08,28.1-35.72,28.1-48.97,0-1.2,1.2-1.2,1.61,0,4.82,16.06,1.61,40.14-21.27,63.02ZM381.17,305.01c5.4,0,9.79-4.03,8.65-10.41-.47-2.6-2.32-4.78-4.79-5.71-6.61-2.49-12.29,1.65-12.29,7.69,0,5.22,3.61,8.43,8.43,8.43ZM384.67,303.12c-6.08,2.37-11.91-1.64-10.52-8.55.44-2.17,2.56-4.42,4.71-4.94,6.75-1.62,11.75,4.02,9.3,10.06-.63,1.57-1.92,2.81-3.5,3.43ZM378.36,301.8h1.61v-4.01h1.2l2.41,4.01h2.01l-2.81-4.42c1.2-.4,2.01-1.2,2.01-2.81,0-2.01-1.2-2.81-3.61-2.81h-2.81v10.04ZM379.96,296.18v-3.21h1.2c1.2,0,2.01.4,2.01,1.61s-.8,1.61-2.01,1.61h-1.2Z"/>
  </g>
</svg>